<?xml version="1.0" encoding="UTF-8" standalone="no"?>
<!DOCTYPE svg PUBLIC "-//W3C//DTD SVG 1.1//EN"
 "http://www.w3.org/Graphics/SVG/1.1/DTD/svg11.dtd">
<!-- Generated by graphviz version 12.2.0 (20241103.1931)
 -->
<!-- Pages: 1 -->
<svg width="645pt" height="864pt"
 viewBox="0.00 0.00 644.85 864.00" xmlns="http://www.w3.org/2000/svg" xmlns:xlink="http://www.w3.org/1999/xlink">
<g id="graph0" class="graph" transform="scale(0.934559 0.934559) rotate(0) translate(4 920.5)">
<polygon fill="white" stroke="none" points="-4,4 -4,-920.5 686,-920.5 686,4 -4,4"/>
<!-- 1310773951248 -->
<g id="node1" class="node">
<title>1310773951248</title>
<polygon fill="#caff70" stroke="black" points="451,-32.75 387,-32.75 387,0 451,0 451,-32.75"/>
<text text-anchor="middle" x="419" y="-7.25" font-family="monospace" font-size="10.00"> (1, 10)</text>
</g>
<!-- 1310770053280 -->
<g id="node2" class="node">
<title>1310770053280</title>
<polygon fill="lightgrey" stroke="black" points="469,-89.5 369,-89.5 369,-68.75 469,-68.75 469,-89.5"/>
<text text-anchor="middle" x="419" y="-76" font-family="monospace" font-size="10.00">AddmmBackward0</text>
</g>
<!-- 1310770053280&#45;&gt;1310773951248 -->
<g id="edge34" class="edge">
<title>1310770053280&#45;&gt;1310773951248</title>
<path fill="none" stroke="black" d="M419,-68.36C419,-61.89 419,-53.05 419,-44.55"/>
<polygon fill="black" stroke="black" points="422.5,-44.55 419,-34.55 415.5,-44.55 422.5,-44.55"/>
</g>
<!-- 1310754068016 -->
<g id="node3" class="node">
<title>1310754068016</title>
<polygon fill="lightgrey" stroke="black" points="348,-146.25 248,-146.25 248,-125.5 348,-125.5 348,-146.25"/>
<text text-anchor="middle" x="298" y="-132.75" font-family="monospace" font-size="10.00">AccumulateGrad</text>
</g>
<!-- 1310754068016&#45;&gt;1310770053280 -->
<g id="edge1" class="edge">
<title>1310754068016&#45;&gt;1310770053280</title>
<path fill="none" stroke="black" d="M319.63,-125.09C338.47,-116.56 366.04,-104.09 387.36,-94.44"/>
<polygon fill="black" stroke="black" points="388.51,-97.76 396.18,-90.45 385.62,-91.39 388.51,-97.76"/>
</g>
<!-- 1310773349984 -->
<g id="node4" class="node">
<title>1310773349984</title>
<polygon fill="lightblue" stroke="black" points="351,-215.75 233,-215.75 233,-182.25 351,-182.25 351,-215.75"/>
<text text-anchor="middle" x="292" y="-202.25" font-family="monospace" font-size="10.00">classifier.3.bias</text>
<text text-anchor="middle" x="292" y="-189.5" font-family="monospace" font-size="10.00"> (10)</text>
</g>
<!-- 1310773349984&#45;&gt;1310754068016 -->
<g id="edge2" class="edge">
<title>1310773349984&#45;&gt;1310754068016</title>
<path fill="none" stroke="black" d="M293.58,-181.94C294.3,-174.6 295.16,-165.82 295.93,-157.96"/>
<polygon fill="black" stroke="black" points="299.39,-158.52 296.89,-148.22 292.43,-157.83 299.39,-158.52"/>
</g>
<!-- 1310770064512 -->
<g id="node5" class="node">
<title>1310770064512</title>
<polygon fill="lightgrey" stroke="black" points="466,-146.25 372,-146.25 372,-125.5 466,-125.5 466,-146.25"/>
<text text-anchor="middle" x="419" y="-132.75" font-family="monospace" font-size="10.00">ReluBackward0</text>
</g>
<!-- 1310770064512&#45;&gt;1310770053280 -->
<g id="edge3" class="edge">
<title>1310770064512&#45;&gt;1310770053280</title>
<path fill="none" stroke="black" d="M419,-125.09C419,-118.47 419,-109.47 419,-101.27"/>
<polygon fill="black" stroke="black" points="422.5,-101.34 419,-91.34 415.5,-101.34 422.5,-101.34"/>
</g>
<!-- 1310759412992 -->
<g id="node6" class="node">
<title>1310759412992</title>
<polygon fill="lightgrey" stroke="black" points="469,-209.38 369,-209.38 369,-188.62 469,-188.62 469,-209.38"/>
<text text-anchor="middle" x="419" y="-195.88" font-family="monospace" font-size="10.00">AddmmBackward0</text>
</g>
<!-- 1310759412992&#45;&gt;1310770064512 -->
<g id="edge4" class="edge">
<title>1310759412992&#45;&gt;1310770064512</title>
<path fill="none" stroke="black" d="M419,-188.18C419,-180.02 419,-168.13 419,-157.85"/>
<polygon fill="black" stroke="black" points="422.5,-157.98 419,-147.98 415.5,-157.98 422.5,-157.98"/>
</g>
<!-- 1310754966592 -->
<g id="node7" class="node">
<title>1310754966592</title>
<polygon fill="lightgrey" stroke="black" points="323,-278.88 223,-278.88 223,-258.12 323,-258.12 323,-278.88"/>
<text text-anchor="middle" x="273" y="-265.38" font-family="monospace" font-size="10.00">AccumulateGrad</text>
</g>
<!-- 1310754966592&#45;&gt;1310759412992 -->
<g id="edge5" class="edge">
<title>1310754966592&#45;&gt;1310759412992</title>
<path fill="none" stroke="black" d="M294.23,-257.68C318.77,-246.34 359.41,-227.55 387.61,-214.51"/>
<polygon fill="black" stroke="black" points="388.76,-217.84 396.37,-210.46 385.83,-211.48 388.76,-217.84"/>
</g>
<!-- 1310773355824 -->
<g id="node8" class="node">
<title>1310773355824</title>
<polygon fill="lightblue" stroke="black" points="328,-354.75 210,-354.75 210,-321.25 328,-321.25 328,-354.75"/>
<text text-anchor="middle" x="269" y="-341.25" font-family="monospace" font-size="10.00">classifier.1.bias</text>
<text text-anchor="middle" x="269" y="-328.5" font-family="monospace" font-size="10.00"> (128)</text>
</g>
<!-- 1310773355824&#45;&gt;1310754966592 -->
<g id="edge6" class="edge">
<title>1310773355824&#45;&gt;1310754966592</title>
<path fill="none" stroke="black" d="M269.95,-321C270.49,-311.9 271.17,-300.39 271.75,-290.57"/>
<polygon fill="black" stroke="black" points="275.23,-291.02 272.33,-280.83 268.24,-290.61 275.23,-291.02"/>
</g>
<!-- 1310754976816 -->
<g id="node9" class="node">
<title>1310754976816</title>
<polygon fill="lightgrey" stroke="black" points="440,-278.88 346,-278.88 346,-258.12 440,-258.12 440,-278.88"/>
<text text-anchor="middle" x="393" y="-265.38" font-family="monospace" font-size="10.00">ViewBackward0</text>
</g>
<!-- 1310754976816&#45;&gt;1310759412992 -->
<g id="edge7" class="edge">
<title>1310754976816&#45;&gt;1310759412992</title>
<path fill="none" stroke="black" d="M396.73,-257.83C400.51,-248 406.48,-232.5 411.29,-220.02"/>
<polygon fill="black" stroke="black" points="414.41,-221.66 414.74,-211.07 407.88,-219.14 414.41,-221.66"/>
</g>
<!-- 1310747961200 -->
<g id="node10" class="node">
<title>1310747961200</title>
<polygon fill="lightgrey" stroke="black" points="440,-348.38 346,-348.38 346,-327.62 440,-327.62 440,-348.38"/>
<text text-anchor="middle" x="393" y="-334.88" font-family="monospace" font-size="10.00">ReluBackward0</text>
</g>
<!-- 1310747961200&#45;&gt;1310754976816 -->
<g id="edge8" class="edge">
<title>1310747961200&#45;&gt;1310754976816</title>
<path fill="none" stroke="black" d="M393,-327.33C393,-317.71 393,-302.63 393,-290.29"/>
<polygon fill="black" stroke="black" points="396.5,-290.67 393,-280.67 389.5,-290.67 396.5,-290.67"/>
</g>
<!-- 1310747962160 -->
<g id="node11" class="node">
<title>1310747962160</title>
<polygon fill="lightgrey" stroke="black" points="452,-417.88 316,-417.88 316,-397.12 452,-397.12 452,-417.88"/>
<text text-anchor="middle" x="384" y="-404.38" font-family="monospace" font-size="10.00">ConvolutionBackward0</text>
</g>
<!-- 1310747962160&#45;&gt;1310747961200 -->
<g id="edge9" class="edge">
<title>1310747962160&#45;&gt;1310747961200</title>
<path fill="none" stroke="black" d="M385.29,-396.83C386.57,-387.21 388.58,-372.13 390.23,-359.79"/>
<polygon fill="black" stroke="black" points="393.66,-360.53 391.51,-350.15 386.72,-359.6 393.66,-360.53"/>
</g>
<!-- 1310747960144 -->
<g id="node12" class="node">
<title>1310747960144</title>
<polygon fill="lightgrey" stroke="black" points="316,-481 192,-481 192,-460.25 316,-460.25 316,-481"/>
<text text-anchor="middle" x="254" y="-467.5" font-family="monospace" font-size="10.00">AvgPool2DBackward0</text>
</g>
<!-- 1310747960144&#45;&gt;1310747962160 -->
<g id="edge10" class="edge">
<title>1310747960144&#45;&gt;1310747962160</title>
<path fill="none" stroke="black" d="M274.89,-459.8C295.92,-449.91 328.63,-434.53 352.76,-423.19"/>
<polygon fill="black" stroke="black" points="354.24,-426.36 361.8,-418.94 351.26,-420.03 354.24,-426.36"/>
</g>
<!-- 1310747952416 -->
<g id="node13" class="node">
<title>1310747952416</title>
<polygon fill="lightgrey" stroke="black" points="301,-544.12 207,-544.12 207,-523.38 301,-523.38 301,-544.12"/>
<text text-anchor="middle" x="254" y="-530.62" font-family="monospace" font-size="10.00">ReluBackward0</text>
</g>
<!-- 1310747952416&#45;&gt;1310747960144 -->
<g id="edge11" class="edge">
<title>1310747952416&#45;&gt;1310747960144</title>
<path fill="none" stroke="black" d="M254,-522.93C254,-514.77 254,-502.88 254,-492.6"/>
<polygon fill="black" stroke="black" points="257.5,-492.73 254,-482.73 250.5,-492.73 257.5,-492.73"/>
</g>
<!-- 1310747962640 -->
<g id="node14" class="node">
<title>1310747962640</title>
<polygon fill="lightgrey" stroke="black" points="322,-607.25 186,-607.25 186,-586.5 322,-586.5 322,-607.25"/>
<text text-anchor="middle" x="254" y="-593.75" font-family="monospace" font-size="10.00">ConvolutionBackward0</text>
</g>
<!-- 1310747962640&#45;&gt;1310747952416 -->
<g id="edge12" class="edge">
<title>1310747962640&#45;&gt;1310747952416</title>
<path fill="none" stroke="black" d="M254,-586.05C254,-577.9 254,-566.01 254,-555.73"/>
<polygon fill="black" stroke="black" points="257.5,-555.86 254,-545.86 250.5,-555.86 257.5,-555.86"/>
</g>
<!-- 1310747965280 -->
<g id="node15" class="node">
<title>1310747965280</title>
<polygon fill="lightgrey" stroke="black" points="186,-664 62,-664 62,-643.25 186,-643.25 186,-664"/>
<text text-anchor="middle" x="124" y="-650.5" font-family="monospace" font-size="10.00">AvgPool2DBackward0</text>
</g>
<!-- 1310747965280&#45;&gt;1310747962640 -->
<g id="edge13" class="edge">
<title>1310747965280&#45;&gt;1310747962640</title>
<path fill="none" stroke="black" d="M147.24,-642.84C167.67,-634.23 197.64,-621.61 220.63,-611.93"/>
<polygon fill="black" stroke="black" points="221.71,-615.27 229.56,-608.17 218.99,-608.82 221.71,-615.27"/>
</g>
<!-- 1310747964512 -->
<g id="node16" class="node">
<title>1310747964512</title>
<polygon fill="lightgrey" stroke="black" points="171,-727.12 77,-727.12 77,-706.38 171,-706.38 171,-727.12"/>
<text text-anchor="middle" x="124" y="-713.62" font-family="monospace" font-size="10.00">ReluBackward0</text>
</g>
<!-- 1310747964512&#45;&gt;1310747965280 -->
<g id="edge14" class="edge">
<title>1310747964512&#45;&gt;1310747965280</title>
<path fill="none" stroke="black" d="M124,-705.93C124,-697.77 124,-685.88 124,-675.6"/>
<polygon fill="black" stroke="black" points="127.5,-675.73 124,-665.73 120.5,-675.73 127.5,-675.73"/>
</g>
<!-- 1310747964080 -->
<g id="node17" class="node">
<title>1310747964080</title>
<polygon fill="lightgrey" stroke="black" points="192,-790.25 56,-790.25 56,-769.5 192,-769.5 192,-790.25"/>
<text text-anchor="middle" x="124" y="-776.75" font-family="monospace" font-size="10.00">ConvolutionBackward0</text>
</g>
<!-- 1310747964080&#45;&gt;1310747964512 -->
<g id="edge15" class="edge">
<title>1310747964080&#45;&gt;1310747964512</title>
<path fill="none" stroke="black" d="M124,-769.05C124,-760.9 124,-749.01 124,-738.73"/>
<polygon fill="black" stroke="black" points="127.5,-738.86 124,-728.86 120.5,-738.86 127.5,-738.86"/>
</g>
<!-- 1310747965232 -->
<g id="node18" class="node">
<title>1310747965232</title>
<polygon fill="lightgrey" stroke="black" points="115,-847 15,-847 15,-826.25 115,-826.25 115,-847"/>
<text text-anchor="middle" x="65" y="-833.5" font-family="monospace" font-size="10.00">AccumulateGrad</text>
</g>
<!-- 1310747965232&#45;&gt;1310747964080 -->
<g id="edge16" class="edge">
<title>1310747965232&#45;&gt;1310747964080</title>
<path fill="none" stroke="black" d="M75.55,-825.84C83.77,-818.21 95.4,-807.42 105.2,-798.32"/>
<polygon fill="black" stroke="black" points="107.48,-800.98 112.43,-791.61 102.72,-795.84 107.48,-800.98"/>
</g>
<!-- 1310749281968 -->
<g id="node19" class="node">
<title>1310749281968</title>
<polygon fill="lightblue" stroke="black" points="118,-916.5 0,-916.5 0,-883 118,-883 118,-916.5"/>
<text text-anchor="middle" x="59" y="-903" font-family="monospace" font-size="10.00">features.0.weight</text>
<text text-anchor="middle" x="59" y="-890.25" font-family="monospace" font-size="10.00"> (32, 1, 7, 7)</text>
</g>
<!-- 1310749281968&#45;&gt;1310747965232 -->
<g id="edge17" class="edge">
<title>1310749281968&#45;&gt;1310747965232</title>
<path fill="none" stroke="black" d="M60.58,-882.69C61.3,-875.35 62.16,-866.57 62.93,-858.71"/>
<polygon fill="black" stroke="black" points="66.39,-859.27 63.89,-848.97 59.43,-858.58 66.39,-859.27"/>
</g>
<!-- 1310747964896 -->
<g id="node20" class="node">
<title>1310747964896</title>
<polygon fill="lightgrey" stroke="black" points="236,-847 136,-847 136,-826.25 236,-826.25 236,-847"/>
<text text-anchor="middle" x="186" y="-833.5" font-family="monospace" font-size="10.00">AccumulateGrad</text>
</g>
<!-- 1310747964896&#45;&gt;1310747964080 -->
<g id="edge18" class="edge">
<title>1310747964896&#45;&gt;1310747964080</title>
<path fill="none" stroke="black" d="M174.92,-825.84C166.19,-818.13 153.81,-807.2 143.44,-798.04"/>
<polygon fill="black" stroke="black" points="145.94,-795.58 136.12,-791.58 141.3,-800.82 145.94,-795.58"/>
</g>
<!-- 1310749292288 -->
<g id="node21" class="node">
<title>1310749292288</title>
<polygon fill="lightblue" stroke="black" points="242,-916.5 136,-916.5 136,-883 242,-883 242,-916.5"/>
<text text-anchor="middle" x="189" y="-903" font-family="monospace" font-size="10.00">features.0.bias</text>
<text text-anchor="middle" x="189" y="-890.25" font-family="monospace" font-size="10.00"> (32)</text>
</g>
<!-- 1310749292288&#45;&gt;1310747964896 -->
<g id="edge19" class="edge">
<title>1310749292288&#45;&gt;1310747964896</title>
<path fill="none" stroke="black" d="M188.21,-882.69C187.85,-875.35 187.42,-866.57 187.03,-858.71"/>
<polygon fill="black" stroke="black" points="190.54,-858.8 186.56,-848.98 183.55,-859.14 190.54,-858.8"/>
</g>
<!-- 1310747962736 -->
<g id="node22" class="node">
<title>1310747962736</title>
<polygon fill="lightgrey" stroke="black" points="304,-664 204,-664 204,-643.25 304,-643.25 304,-664"/>
<text text-anchor="middle" x="254" y="-650.5" font-family="monospace" font-size="10.00">AccumulateGrad</text>
</g>
<!-- 1310747962736&#45;&gt;1310747962640 -->
<g id="edge20" class="edge">
<title>1310747962736&#45;&gt;1310747962640</title>
<path fill="none" stroke="black" d="M254,-642.84C254,-636.22 254,-627.22 254,-619.02"/>
<polygon fill="black" stroke="black" points="257.5,-619.09 254,-609.09 250.5,-619.09 257.5,-619.09"/>
</g>
<!-- 1310805073008 -->
<g id="node23" class="node">
<title>1310805073008</title>
<polygon fill="lightblue" stroke="black" points="310,-733.5 192,-733.5 192,-700 310,-700 310,-733.5"/>
<text text-anchor="middle" x="251" y="-720" font-family="monospace" font-size="10.00">features.3.weight</text>
<text text-anchor="middle" x="251" y="-707.25" font-family="monospace" font-size="10.00"> (64, 32, 7, 7)</text>
</g>
<!-- 1310805073008&#45;&gt;1310747962736 -->
<g id="edge21" class="edge">
<title>1310805073008&#45;&gt;1310747962736</title>
<path fill="none" stroke="black" d="M251.79,-699.69C252.15,-692.35 252.58,-683.57 252.97,-675.71"/>
<polygon fill="black" stroke="black" points="256.45,-676.14 253.44,-665.98 249.46,-675.8 256.45,-676.14"/>
</g>
<!-- 1310747958944 -->
<g id="node24" class="node">
<title>1310747958944</title>
<polygon fill="lightgrey" stroke="black" points="426,-664 326,-664 326,-643.25 426,-643.25 426,-664"/>
<text text-anchor="middle" x="376" y="-650.5" font-family="monospace" font-size="10.00">AccumulateGrad</text>
</g>
<!-- 1310747958944&#45;&gt;1310747962640 -->
<g id="edge22" class="edge">
<title>1310747958944&#45;&gt;1310747962640</title>
<path fill="none" stroke="black" d="M354.19,-642.84C335.19,-634.31 307.4,-621.84 285.91,-612.19"/>
<polygon fill="black" stroke="black" points="287.56,-609.1 277,-608.2 284.69,-615.49 287.56,-609.1"/>
</g>
<!-- 1310773349344 -->
<g id="node25" class="node">
<title>1310773349344</title>
<polygon fill="lightblue" stroke="black" points="434,-733.5 328,-733.5 328,-700 434,-700 434,-733.5"/>
<text text-anchor="middle" x="381" y="-720" font-family="monospace" font-size="10.00">features.3.bias</text>
<text text-anchor="middle" x="381" y="-707.25" font-family="monospace" font-size="10.00"> (64)</text>
</g>
<!-- 1310773349344&#45;&gt;1310747958944 -->
<g id="edge23" class="edge">
<title>1310773349344&#45;&gt;1310747958944</title>
<path fill="none" stroke="black" d="M379.69,-699.69C379.09,-692.35 378.37,-683.57 377.72,-675.71"/>
<polygon fill="black" stroke="black" points="381.23,-675.66 376.93,-665.98 374.26,-676.23 381.23,-675.66"/>
</g>
<!-- 1310747960912 -->
<g id="node26" class="node">
<title>1310747960912</title>
<polygon fill="lightgrey" stroke="black" points="434,-481 334,-481 334,-460.25 434,-460.25 434,-481"/>
<text text-anchor="middle" x="384" y="-467.5" font-family="monospace" font-size="10.00">AccumulateGrad</text>
</g>
<!-- 1310747960912&#45;&gt;1310747962160 -->
<g id="edge24" class="edge">
<title>1310747960912&#45;&gt;1310747962160</title>
<path fill="none" stroke="black" d="M384,-459.8C384,-451.65 384,-439.76 384,-429.48"/>
<polygon fill="black" stroke="black" points="387.5,-429.61 384,-419.61 380.5,-429.61 387.5,-429.61"/>
</g>
<!-- 1310773352624 -->
<g id="node27" class="node">
<title>1310773352624</title>
<polygon fill="lightblue" stroke="black" points="440,-550.5 322,-550.5 322,-517 440,-517 440,-550.5"/>
<text text-anchor="middle" x="381" y="-537" font-family="monospace" font-size="10.00">features.6.weight</text>
<text text-anchor="middle" x="381" y="-524.25" font-family="monospace" font-size="10.00"> (128, 64, 7, 7)</text>
</g>
<!-- 1310773352624&#45;&gt;1310747960912 -->
<g id="edge25" class="edge">
<title>1310773352624&#45;&gt;1310747960912</title>
<path fill="none" stroke="black" d="M381.79,-516.69C382.15,-509.35 382.58,-500.57 382.97,-492.71"/>
<polygon fill="black" stroke="black" points="386.45,-493.14 383.44,-482.98 379.46,-492.8 386.45,-493.14"/>
</g>
<!-- 1310747956928 -->
<g id="node28" class="node">
<title>1310747956928</title>
<polygon fill="lightgrey" stroke="black" points="556,-481 456,-481 456,-460.25 556,-460.25 556,-481"/>
<text text-anchor="middle" x="506" y="-467.5" font-family="monospace" font-size="10.00">AccumulateGrad</text>
</g>
<!-- 1310747956928&#45;&gt;1310747962160 -->
<g id="edge26" class="edge">
<title>1310747956928&#45;&gt;1310747962160</title>
<path fill="none" stroke="black" d="M486.4,-459.8C466.74,-449.96 436.23,-434.67 413.63,-423.34"/>
<polygon fill="black" stroke="black" points="415.41,-420.32 404.91,-418.97 412.28,-426.58 415.41,-420.32"/>
</g>
<!-- 1310773347424 -->
<g id="node29" class="node">
<title>1310773347424</title>
<polygon fill="lightblue" stroke="black" points="564,-550.5 458,-550.5 458,-517 564,-517 564,-550.5"/>
<text text-anchor="middle" x="511" y="-537" font-family="monospace" font-size="10.00">features.6.bias</text>
<text text-anchor="middle" x="511" y="-524.25" font-family="monospace" font-size="10.00"> (128)</text>
</g>
<!-- 1310773347424&#45;&gt;1310747956928 -->
<g id="edge27" class="edge">
<title>1310773347424&#45;&gt;1310747956928</title>
<path fill="none" stroke="black" d="M509.69,-516.69C509.09,-509.35 508.37,-500.57 507.72,-492.71"/>
<polygon fill="black" stroke="black" points="511.23,-492.66 506.93,-482.98 504.26,-493.23 511.23,-492.66"/>
</g>
<!-- 1310747959808 -->
<g id="node30" class="node">
<title>1310747959808</title>
<polygon fill="lightgrey" stroke="black" points="534,-278.88 458,-278.88 458,-258.12 534,-258.12 534,-278.88"/>
<text text-anchor="middle" x="496" y="-265.38" font-family="monospace" font-size="10.00">TBackward0</text>
</g>
<!-- 1310747959808&#45;&gt;1310759412992 -->
<g id="edge28" class="edge">
<title>1310747959808&#45;&gt;1310759412992</title>
<path fill="none" stroke="black" d="M484.97,-257.83C472.91,-247.26 453.37,-230.13 438.67,-217.25"/>
<polygon fill="black" stroke="black" points="441.23,-214.83 431.4,-210.87 436.61,-220.09 441.23,-214.83"/>
</g>
<!-- 1310747533536 -->
<g id="node31" class="node">
<title>1310747533536</title>
<polygon fill="lightgrey" stroke="black" points="567,-348.38 467,-348.38 467,-327.62 567,-327.62 567,-348.38"/>
<text text-anchor="middle" x="517" y="-334.88" font-family="monospace" font-size="10.00">AccumulateGrad</text>
</g>
<!-- 1310747533536&#45;&gt;1310747959808 -->
<g id="edge29" class="edge">
<title>1310747533536&#45;&gt;1310747959808</title>
<path fill="none" stroke="black" d="M513.99,-327.33C510.97,-317.6 506.21,-302.32 502.35,-289.9"/>
<polygon fill="black" stroke="black" points="505.77,-289.11 499.45,-280.6 499.08,-291.19 505.77,-289.11"/>
</g>
<!-- 1310773350944 -->
<g id="node32" class="node">
<title>1310773350944</title>
<polygon fill="lightblue" stroke="black" points="600,-424.25 470,-424.25 470,-390.75 600,-390.75 600,-424.25"/>
<text text-anchor="middle" x="535" y="-410.75" font-family="monospace" font-size="10.00">classifier.1.weight</text>
<text text-anchor="middle" x="535" y="-398" font-family="monospace" font-size="10.00"> (128, 6272)</text>
</g>
<!-- 1310773350944&#45;&gt;1310747533536 -->
<g id="edge30" class="edge">
<title>1310773350944&#45;&gt;1310747533536</title>
<path fill="none" stroke="black" d="M530.73,-390.5C528.28,-381.3 525.17,-369.64 522.53,-359.74"/>
<polygon fill="black" stroke="black" points="525.97,-359.04 520.01,-350.28 519.2,-360.85 525.97,-359.04"/>
</g>
<!-- 1310770065040 -->
<g id="node33" class="node">
<title>1310770065040</title>
<polygon fill="lightgrey" stroke="black" points="594,-146.25 518,-146.25 518,-125.5 594,-125.5 594,-146.25"/>
<text text-anchor="middle" x="556" y="-132.75" font-family="monospace" font-size="10.00">TBackward0</text>
</g>
<!-- 1310770065040&#45;&gt;1310770053280 -->
<g id="edge31" class="edge">
<title>1310770065040&#45;&gt;1310770053280</title>
<path fill="none" stroke="black" d="M531.51,-125.09C509.88,-116.44 478.11,-103.75 453.84,-94.05"/>
<polygon fill="black" stroke="black" points="455.27,-90.85 444.69,-90.39 452.67,-97.35 455.27,-90.85"/>
</g>
<!-- 1310759403680 -->
<g id="node34" class="node">
<title>1310759403680</title>
<polygon fill="lightgrey" stroke="black" points="640,-209.38 540,-209.38 540,-188.62 640,-188.62 640,-209.38"/>
<text text-anchor="middle" x="590" y="-195.88" font-family="monospace" font-size="10.00">AccumulateGrad</text>
</g>
<!-- 1310759403680&#45;&gt;1310770065040 -->
<g id="edge32" class="edge">
<title>1310759403680&#45;&gt;1310770065040</title>
<path fill="none" stroke="black" d="M584.54,-188.18C579.8,-179.66 572.8,-167.08 566.92,-156.51"/>
<polygon fill="black" stroke="black" points="569.99,-154.83 562.07,-147.79 563.88,-158.23 569.99,-154.83"/>
</g>
<!-- 1310773351584 -->
<g id="node35" class="node">
<title>1310773351584</title>
<polygon fill="lightblue" stroke="black" points="682,-285.25 552,-285.25 552,-251.75 682,-251.75 682,-285.25"/>
<text text-anchor="middle" x="617" y="-271.75" font-family="monospace" font-size="10.00">classifier.3.weight</text>
<text text-anchor="middle" x="617" y="-259" font-family="monospace" font-size="10.00"> (10, 128)</text>
</g>
<!-- 1310773351584&#45;&gt;1310759403680 -->
<g id="edge33" class="edge">
<title>1310773351584&#45;&gt;1310759403680</title>
<path fill="none" stroke="black" d="M610.6,-251.5C606.88,-242.2 602.15,-230.38 598.17,-220.41"/>
<polygon fill="black" stroke="black" points="601.45,-219.21 594.49,-211.23 594.96,-221.81 601.45,-219.21"/>
</g>
</g>
</svg>
